<svg width="25" height="24" viewBox="0 0 25 24" fill="none" xmlns="http://www.w3.org/2000/svg">
<path d="M17.4309 14.3996C17.1065 14.0753 16.5552 14.0753 16.2309 14.3996L14.3498 16.2807C13.4741 17.1564 11.4957 16.5726 9.90653 14.9834C8.31734 13.3942 7.73355 11.4159 8.60923 10.5402L10.4903 8.6591C10.8146 8.33478 10.8146 7.78342 10.4903 7.4591L6.1768 3.14559C5.85247 2.82126 5.30112 2.82126 4.9768 3.14559L3.71193 4.41045C1.1822 6.94018 2.86869 12.7456 7.50653 17.3834C12.1444 22.0213 17.9498 23.7402 20.4795 21.178L21.7444 19.9132C22.0687 19.5888 22.0687 19.0375 21.7444 18.7132L17.4309 14.3996Z" fill="white"/>
<path d="M13.0199 1.62119C12.5983 1.58876 12.274 1.94551 12.3064 2.39957C12.3389 2.72389 12.6632 2.98335 12.9875 3.01578C17.7875 3.34011 21.6145 7.19957 21.9389 11.9996C21.9713 12.3563 22.2632 12.6482 22.6199 12.6482C23.0091 12.6482 23.3335 12.3239 23.301 11.9023C22.9443 6.38876 18.5335 1.97795 13.0199 1.62119Z" fill="white"/>
<path d="M12.9552 6.42076C15.8741 6.71266 18.2093 9.04779 18.5012 11.9991C18.5336 12.3559 18.8255 12.6154 19.1823 12.6154C19.5714 12.6154 19.8958 12.2586 19.8633 11.8694C19.5066 8.26941 16.6525 5.38293 13.0525 5.02617C12.5985 4.99374 12.2093 5.41536 12.339 5.90185C12.4039 6.22617 12.6633 6.38833 12.9552 6.42076Z" fill="white"/>
</svg>
